# xmcd CD database file
#
# Track frame offsets:
#	150
#	38067
#	67174
#	91807
#	109495
#	137363
#	191047
#	217587
#
# Disc length: 3230 seconds
#
# Revision: 0
# Processed by: cddbd v1.5.2PL0 Copyright (c) Steve Scherf et al.
# Submitted via: CDex 1.51
#
DISCID=6b0c9c08
DTITLE=Chucho valdesIrakere - 30 anos
DYEAR=2004
DGENRE=Jazz
TTITLE0=Juana 1600
TTITLE1=Nothing personal
TTITLE2=Zanaith
TTITLE3=Drume negrita
TTITLE4=100 anos de juventud
TTITLE5=Estella va a estellar
TTITLE6=Chango
TTITLE7=Bacalao con pan
EXTD=YEAR: 2004
EXTT0=
EXTT1=
EXTT2=
EXTT3=
EXTT4=
EXTT5=
EXTT6=
EXTT7=
PLAYORDER=
